<svg id="Layer_1" data-name="Layer 1" xmlns="http://www.w3.org/2000/svg" viewBox="0 0 1332.56 626.89"><defs><style>.cls-1{fill:none;stroke:#124559;stroke-miterlimit:10;stroke-width:4px;}</style></defs><path class="cls-1" d="M623.31,228.32c3.18.37,6.36.84,9.54,1.13a311.66,311.66,0,0,1,278.5,244.84A302.55,302.55,0,0,1,917.48,562,306.49,306.49,0,0,1,833,753.66a8,8,0,0,0-2.28,7.05,78.06,78.06,0,0,0,69.39,69.86c2.63.32,5.29.2,7.92.37a10.13,10.13,0,1,1-.81,20.24,98.31,98.31,0,0,1-94.46-75.95,5.24,5.24,0,0,0-.4-1.25c-.93.73-1.74,1.3-2.49,1.94a307.06,307.06,0,0,1-145.38,70,310.58,310.58,0,0,1-83.85,4.17A300.48,300.48,0,0,1,442.25,804c-71.71-45.77-118.2-109.88-138.5-192.8a293,293,0,0,1-7.66-52.36,8.93,8.93,0,0,0-.58-2V522.6a8.69,8.69,0,0,0,.58-2A303.89,303.89,0,0,1,306.58,457,311.42,311.42,0,0,1,580.43,229.47c2.89-.26,5.78-.78,8.67-1.15ZM315.54,539.52c-.23,160.59,130.29,291.19,291.17,291.42,160.41.24,290.79-130,291.34-291,.52-160.33-129.83-290.9-291-291.54C446.81,247.92,315.8,378.67,315.54,539.52Z" transform="translate(-293.51 -226.32)"/><path class="cls-1" d="M443.37,398.27A88.45,88.45,0,1,1,355.1,486.9v-.44A88.51,88.51,0,0,1,443.37,398.27Zm24,24.75a67.5,67.5,0,0,0-69.82,13.07,68.22,68.22,0,0,0-18.28,73.73c7.52,20.82,30.1,41.55,46.06,42.25a182.18,182.18,0,0,1,42-129.13ZM445.74,554.7A68.06,68.06,0,0,0,485.3,433C455.29,468,442.25,508.49,445.74,554.7Z" transform="translate(-293.51 -226.32)"/><path class="cls-1" d="M506.12,590.23a88.31,88.31,0,1,1-.87,0ZM452.57,636.5c-14.92,17.35-20,44.93-9.51,69.39A67.82,67.82,0,0,0,506.67,747c23.82-.47,42.3-11,56.38-30.51a185,185,0,0,1-110.48-80.15Zm118.55,61.24a67.81,67.81,0,0,0-103.49-75.18,163.93,163.93,0,0,0,103.54,75Z" transform="translate(-293.51 -226.32)"/><path class="cls-1" d="M607.06,279.73a88.39,88.39,0,1,1-88.63,88.15v-.34A88.39,88.39,0,0,1,607.06,279.73Zm68.2,91.39c0-26-9.94-46.89-31.8-60.54-24.75-15.41-50.31-15-74.63,1.07-20.85,13.79-30.36,34.12-30.18,59.47a184.55,184.55,0,0,1,136.5-.14Zm-4.19,20.1a162.93,162.93,0,0,0-128.17,0,68.06,68.06,0,0,0,128.17,0Z" transform="translate(-293.51 -226.32)"/><path class="cls-1" d="M707.62,767a88.39,88.39,0,1,1,88.51-88.26c0,.28,0,.57,0,.86A88.32,88.32,0,0,1,707.62,767Zm53.49-131.18a185.08,185.08,0,0,1-110.68,80.47c14.69,20.24,34.06,30.79,58.92,30.59a67.46,67.46,0,0,0,61.39-42.16C780.54,680.27,776.9,657.32,761.11,635.86ZM746,622.27a67.95,67.95,0,0,0-103.6,75.32A163.83,163.83,0,0,0,746,622.27Z" transform="translate(-293.51 -226.32)"/><path class="cls-1" d="M770.48,398.27a88.39,88.39,0,1,1-88.76,88c0-.51,0-1,0-1.51C682.23,437.31,722.71,397.81,770.48,398.27Zm-41.7,34a68.47,68.47,0,0,0-22,79.83,67.14,67.14,0,0,0,61,42.47c0-1.67.32-3.35.43-5a166.33,166.33,0,0,0-5-51.58,10.1,10.1,0,0,1,7.23-13.33c5.44-1.33,10.55,2.14,12.17,8.33a185.58,185.58,0,0,1,5.79,56.61v2.89C815,543.65,832,526.22,837,499s-3.91-50.14-25.88-67c-19.57-15-41.55-17.35-65.14-9.55.75,1,1.27,1.62,1.73,2.29,5.55,8,11.28,15.84,16.54,24a9.84,9.84,0,0,1-5.41,14.89,10.44,10.44,0,0,1-12.14-5.15C740.9,449.91,734.89,441.27,728.78,432.31Z" transform="translate(-293.51 -226.32)"/><path class="cls-1" d="M607.06,487.5a52.2,52.2,0,1,1-.29,0Zm31.8,51.41A32.24,32.24,0,0,0,606,507.54c-18.15.81-32.35,15.76-31.43,33.08,1,18.07,15.82,32.12,33,31.2A32.24,32.24,0,0,0,638.86,538.91Z" transform="translate(-293.51 -226.32)"/><path class="cls-1" d="M1027.55,535.91a14.11,14.11,0,0,1-8.44,2.19,10,10,0,0,1-7.17-2.48,8.24,8.24,0,0,1-2.89-5.21,201.87,201.87,0,0,0,1.24-26.25q0-10.41-1.24-32-1.49-20.44-1.48-36.23,0-8.67.84-17.49a9.29,9.29,0,0,1,3.44-6.25,16.34,16.34,0,0,1,9.49-4.16,472.78,472.78,0,0,1,48.49-2.08h6.67a40.76,40.76,0,0,1,14.66,2.72,9.56,9.56,0,0,1,7.43,9.36,10.33,10.33,0,0,1-2.08,6.86,9.65,9.65,0,0,1-7.72,2.51,52,52,0,0,1-6.24-.43l-5-.61a84.1,84.1,0,0,0-12.26-1.27,148.71,148.71,0,0,0-36.44,3.35c0,4.57,0,12,.41,22.27l.2,13.33a176.44,176.44,0,0,0,19.37-1c5.79-.61,8.94-1,9.78-1.13,7.23-.83,12-1.24,14.45-1.24a15.65,15.65,0,0,1,8.45,2.17,7.49,7.49,0,0,1,3.41,6.77q0,10.39-14.46,10.4a57,57,0,0,0-6.24.21l-4.57.43a117.55,117.55,0,0,1-11.86.84c-6.39,0-11.79.2-16.25.61q0,7.71.64,16.25c0,1.79,0,4.56.29,8.32s.32,7.14.32,10.21,0,5.06-.21,7.29a33.52,33.52,0,0,1-1,6.44A8.65,8.65,0,0,1,1027.55,535.91Z" transform="translate(-293.51 -226.32)"/><path class="cls-1" d="M1193.26,535.82a17.05,17.05,0,0,1-9,3.12,32.68,32.68,0,0,1-12.58-2,21,21,0,0,1-8.67-7.38,35.1,35.1,0,0,1-14.78,7.17,70.14,70.14,0,0,1-17.35,2.4,31.81,31.81,0,0,1-21.22-7q-8.13-7-8.12-20.5a19.41,19.41,0,0,1,2.89-10.73,30.27,30.27,0,0,1,8.53-8.68,49.38,49.38,0,0,1,13.73-6.13,58.2,58.2,0,0,1,16-2.19,39.51,39.51,0,0,1,10.41,1.67,42.39,42.39,0,0,1,9.37,3.53v-3.3q0-11.24-5.41-15.52c-3.61-2.89-9.43-4.25-17.49-4.25a17.93,17.93,0,0,0-7,1.44,78.35,78.35,0,0,0-7.81,4,23.31,23.31,0,0,1-11,3.13c-1.28,0-2.43-.87-3.56-2.6a9,9,0,0,1-1.65-4.69,12.86,12.86,0,0,1,5.78-10.41,40,40,0,0,1,13.68-6.59,54.41,54.41,0,0,1,14.17-2.17,51.84,51.84,0,0,1,14.46,2.37,39.13,39.13,0,0,1,13.3,6.57,38.4,38.4,0,0,1,9.62,12.63,35.83,35.83,0,0,1,3.44,15.7c0,1.82-.14,4.51-.4,8.13s-.43,7.22-.43,10c0,1.24-.15,3.12-.41,5.61q-.43,4.59-.43,7.29a5.78,5.78,0,0,0,1.88,4.28,6.12,6.12,0,0,0,4.36,1.76l5.79-.2a4.11,4.11,0,0,1,3.52,1.64,6.86,6.86,0,0,1,1.28,4.17A9.11,9.11,0,0,1,1193.26,535.82Zm-47.13-15a73.3,73.3,0,0,0,14.46-6.85,51.7,51.7,0,0,0,1-9.37,46.93,46.93,0,0,0-19-5.41,35.48,35.48,0,0,0-15.15,3.18,11.17,11.17,0,0,0-6.68,11,8.35,8.35,0,0,0,3.35,6.68,10.85,10.85,0,0,0,6.86,2.69A50.66,50.66,0,0,0,1146.13,520.81Z" transform="translate(-293.51 -226.32)"/><path class="cls-1" d="M1235.21,408.31a10.52,10.52,0,0,1,5.41,9.68,8.67,8.67,0,0,1-4.45,7.58,19.79,19.79,0,0,1-10.73,2.89,9.68,9.68,0,0,1-8.3-3.18,10.79,10.79,0,0,1-2.28-6.48,34.3,34.3,0,0,1,1.33-10.41,5.78,5.78,0,0,1,6.36-3.93A28.86,28.86,0,0,1,1235.21,408.31Zm4,88.27v6.05c0,5.4.18,10.52.53,15.29s.8,9.63,1.35,14.46a5.47,5.47,0,0,1-2.89,4.45,9.81,9.81,0,0,1-5.4,2,22,22,0,0,1-8-1.57,7.82,7.82,0,0,1-4.92-3.84,67.75,67.75,0,0,1-1.24-11.89q0-17.05-1-38.31-.81-18.74-.84-26.22a7.86,7.86,0,0,1,3.76-6.45,13.42,13.42,0,0,1,7.92-2.72,10.88,10.88,0,0,1,8.41,2.72,12.68,12.68,0,0,1,2.4,8.53Z" transform="translate(-293.51 -226.32)"/><path class="cls-1" d="M1265.2,466.08a7.35,7.35,0,0,1-6.45-7.49,7.62,7.62,0,0,1,.72-3.12,8,8,0,0,1,2.2-2.9c1.79-1.79,6.65-2.71,14.46-2.71a82.72,82.72,0,0,0,1.65-16.46,41.91,41.91,0,0,0-.21-5.4,25.4,25.4,0,0,1-.2-3.53,7.67,7.67,0,0,1,3.44-6.88,13.7,13.7,0,0,1,7.81-2.29A8.68,8.68,0,0,1,1296,418a17.82,17.82,0,0,1,2,10,121.13,121.13,0,0,1-1.88,21.25c2.19,0,5.26-.14,9.16-.43,5.26-.26,9.08-.41,11.57-.41a10.62,10.62,0,0,1,6.13,1.77,5.61,5.61,0,0,1,2.6,4.88,8.67,8.67,0,0,1-7.23,9.54,123.26,123.26,0,0,1-23.94,2.32c-.4,5.4-.64,11.3-.64,17.69a132.82,132.82,0,0,0,1.88,24.55,18.32,18.32,0,0,0,4.28,9.69,12.24,12.24,0,0,0,9,2.89,16.38,16.38,0,0,0,7.29-1.85,9.17,9.17,0,0,1,4.57-1.48,5,5,0,0,1,4.28,1.88,8.42,8.42,0,0,1,1.36,5,11.28,11.28,0,0,1-6.25,9.69,30.4,30.4,0,0,1-16,3.85,28.39,28.39,0,0,1-12.17-2.9,34.32,34.32,0,0,1-10.29-7.28,20.35,20.35,0,0,1-2.29-4.8,73.92,73.92,0,0,1-2.89-8.94,139.89,139.89,0,0,1-2.08-27.49c0-5.12.26-12,.84-20.59Z" transform="translate(-293.51 -226.32)"/><path class="cls-1" d="M1135,660.21c2.89,2.57,4.28,4.74,4.28,6.56q0,12.66-.84,34.7c0,3.61-.29,7.95-.41,13s-.23,10.93-.23,17.58q0,31.66,3.76,46.64a8.12,8.12,0,0,1-4,7.2,14.87,14.87,0,0,1-7.49,2.16q-8.32,0-10.93-5.78a42.36,42.36,0,0,1-2.6-16.65q0-40.23.84-73.91-23.94,26.64-37.27,44.76l-3.76,2.49a9.91,9.91,0,0,1-5.78,3.12,14.27,14.27,0,0,1-9-2.72,29.58,29.58,0,0,1-6.85-7.89l-10-14.17q-10.41-14.46-15.21-22.06,0,19.17,1.88,52,1.47,19,1.47,28.51a13.9,13.9,0,0,1-2.51,8.44,9.13,9.13,0,0,1-7.9,3.44,16.83,16.83,0,0,1-8.84-2.08,7.22,7.22,0,0,1-3.65-6.25c0-2.37.2-6.24.2-11.56q0-16.26-1-39.56l-.43-11.25-.4-14.45q-.23-6.46-.41-15.1c-.12-5.75-.23-12.05-.23-18.85q0-12.5,13.53-12.49a19.17,19.17,0,0,1,8.44,2.08,13.91,13.91,0,0,1,6.36,6.05q1.65,7.28,12.26,24.14T1069.1,720a203.21,203.21,0,0,1,15-17.49,195.88,195.88,0,0,0,16.54-18.94q6.52-8.67,14.25-21.05a15.47,15.47,0,0,1,5.44-4.25,16.38,16.38,0,0,1,7.49-1.77A12,12,0,0,1,1135,660.21Z" transform="translate(-293.51 -226.32)"/><path class="cls-1" d="M1257.19,785.72a17.34,17.34,0,0,1-9.08,3.13,32.88,32.88,0,0,1-12.58-2,21,21,0,0,1-8.67-7.37,35.22,35.22,0,0,1-14.78,7.17,70.61,70.61,0,0,1-17.35,2.4,31.82,31.82,0,0,1-21.22-7q-8.33-7-8.33-20.5a19.56,19.56,0,0,1,3.13-10.73,30.11,30.11,0,0,1,8.53-8.67,49.51,49.51,0,0,1,13.73-6.13,58,58,0,0,1,16-2.2,39.52,39.52,0,0,1,10.41,1.68,42.81,42.81,0,0,1,9.36,3.53v-3.33q0-11.22-5.43-15.53T1203.61,716a18.35,18.35,0,0,0-7,1.45,76.11,76.11,0,0,0-7.8,4,23.37,23.37,0,0,1-11,3.12c-1.23,0-2.42-.86-3.56-2.6a9,9,0,0,1-1.64-4.68,12.81,12.81,0,0,1,5.78-10.41,39.81,39.81,0,0,1,13.62-6.57,54.33,54.33,0,0,1,14.16-2.16,51.42,51.42,0,0,1,14.46,2.37,39.34,39.34,0,0,1,13.33,6.56,38.47,38.47,0,0,1,9.66,12.61,35.5,35.5,0,0,1,3.44,15.7,67.17,67.17,0,0,1-.41,8.12,91.72,91.72,0,0,0-.43,10,52.52,52.52,0,0,1-.4,5.6c-.29,3.07-.41,5.5-.41,7.29a5.79,5.79,0,0,0,1.85,4.28,6.19,6.19,0,0,0,4.4,1.76l5.78-.2a4.24,4.24,0,0,1,3.56,1.65,7,7,0,0,1,1.24,4.16A9.11,9.11,0,0,1,1257.19,785.72Zm-47.16-15a73.34,73.34,0,0,0,14.46-6.86,51.69,51.69,0,0,0,1-9.36,46.79,46.79,0,0,0-18.94-5.41,35.42,35.42,0,0,0-15.21,3.12,11.13,11.13,0,0,0-6.65,11,8.33,8.33,0,0,0,3.5,6.59,10.82,10.82,0,0,0,6.85,2.69,50.66,50.66,0,0,0,15-1.88Z" transform="translate(-293.51 -226.32)"/><path class="cls-1" d="M1299.11,658.12a10.55,10.55,0,0,1,5.44,9.69,8.7,8.7,0,0,1-4.48,7.58,19.79,19.79,0,0,1-10.73,2.89,9.75,9.75,0,0,1-8.33-3.12,10.82,10.82,0,0,1-2.28-6.48,33.34,33.34,0,0,1,1.36-10.41,5.6,5.6,0,0,1,6.33-3.93A28.94,28.94,0,0,1,1299.11,658.12Zm4,88.37v6c0,5.41.18,10.52.53,15.29s.8,9.63,1.35,14.46a5.46,5.46,0,0,1-2.89,4.45,9.66,9.66,0,0,1-5.4,2,22.17,22.17,0,0,1-8-1.56,7.7,7.7,0,0,1-4.89-3.85,64.93,64.93,0,0,1-1.27-11.88q0-17.06-1-38.31-.81-18.74-.81-26.23a7.84,7.84,0,0,1,3.73-6.45,13.48,13.48,0,0,1,7.92-2.71,10.87,10.87,0,0,1,8.41,2.71,12.72,12.72,0,0,1,2.4,8.53Z" transform="translate(-293.51 -226.32)"/><path class="cls-1" d="M1394,744.92a15.11,15.11,0,0,1,6.57,6.57,26.36,26.36,0,0,1,1.64,10.41,21.13,21.13,0,0,1-4.36,13.21,28.9,28.9,0,0,1-11.25,8.85,49.72,49.72,0,0,1-12.17,3.56,74.36,74.36,0,0,1-11.34,1.24,62.33,62.33,0,0,1-10.72-1.24,52.26,52.26,0,0,1-9-2.32,43.51,43.51,0,0,1-11.17-9.13,16.85,16.85,0,0,1-4.65-11.05,8.3,8.3,0,0,1,2.69-6.56,10.27,10.27,0,0,1,7.08-2.4,7.79,7.79,0,0,1,4.37,1.56,9,9,0,0,1,3.12,3.24,15.76,15.76,0,0,0,7.72,8.12,24.4,24.4,0,0,0,11,2.69A37.64,37.64,0,0,0,1377,769.3c4.16-1.62,6.24-3.79,6.24-6.56a4.8,4.8,0,0,0-.92-3,15.38,15.38,0,0,0-2.6-2.37,25,25,0,0,0-8.68-3.44l-7.49-1.77a81.65,81.65,0,0,1-16.65-5.63,40.66,40.66,0,0,1-12.9-9.37,20.32,20.32,0,0,1-4.8-13.94,21.24,21.24,0,0,1,4.17-11.77,24.34,24.34,0,0,1,9.37-8.67,82.83,82.83,0,0,1,12.6-3.12,80.7,80.7,0,0,1,12-1.65,62.64,62.64,0,0,1,10.41.92,20.9,20.9,0,0,1,8.53,2.89,44.64,44.64,0,0,1,9.17,7,11.53,11.53,0,0,1,3.52,8.21,13.07,13.07,0,0,1-1,4.89,5.63,5.63,0,0,1-2.48,3.24,17.39,17.39,0,0,1-7.29,1.44,4.35,4.35,0,0,1-3-1,32.67,32.67,0,0,1-2.9-3.32,9.19,9.19,0,0,0-4.36-4.17q-2.52-.6-7.29-1.56a40.09,40.09,0,0,0-6.45-.92,21,21,0,0,0-9.88,2.69c-3.42,1.81-5.12,3.89-5.12,6.24a3.32,3.32,0,0,0,1.56,2.89,24.18,24.18,0,0,0,3.32,1.88c1.19.55,2,.9,2.4,1a56.73,56.73,0,0,0,9.69,3.53c3.53,1,5.78,1.59,6.56,1.88a52.09,52.09,0,0,1,15,5.21A40.41,40.41,0,0,0,1394,744.92Z" transform="translate(-293.51 -226.32)"/><path class="cls-1" d="M1506.46,729.51a55.7,55.7,0,0,1,1,9.89,71.13,71.13,0,0,1-1.85,14.46,80.87,80.87,0,0,1-3.13,11.56q-11.26,23.34-43.37,23.34a34.69,34.69,0,0,1-20-6.77,39.25,39.25,0,0,1-13.85-15.93l-1.44-4.16c-.15-.55-.87-2.66-2.2-6.36a28.09,28.09,0,0,1-2-8.42,57.83,57.83,0,0,1,4.17-19.77,62.67,62.67,0,0,1,9.57-17.9,27.63,27.63,0,0,1,13.53-8.24,55.46,55.46,0,0,1,17.7-3.44,43.94,43.94,0,0,1,23.13,5.43,47.92,47.92,0,0,1,15.93,17.9A28.28,28.28,0,0,1,1506.46,729.51ZM1486,749.41a54.75,54.75,0,0,0,.61-8.68,33.72,33.72,0,0,0-2.17-11.88,28,28,0,0,0-6.36-10,5.23,5.23,0,0,0-1.45-1.36,15.49,15.49,0,0,0-4-1.88,21.06,21.06,0,0,0-6.88-.92,20.53,20.53,0,0,0-13.73,4.77,29.77,29.77,0,0,0-8.42,11.88,37.7,37.7,0,0,0-2.89,13.94,47.64,47.64,0,0,0,1.27,7.69,69.36,69.36,0,0,0,1.86,7.52,27.21,27.21,0,0,0,6.47,6.77,16.92,16.92,0,0,0,10.82,3.84,22.6,22.6,0,0,0,14.68-4.37,31.18,31.18,0,0,0,8.68-12.08A17.55,17.55,0,0,0,1486,749.41Z" transform="translate(-293.51 -226.32)"/><path class="cls-1" d="M1523.11,712.05a8.52,8.52,0,0,1-1-4.92A7.32,7.32,0,0,1,1525,701a10.36,10.36,0,0,1,6.54-2.19,21.29,21.29,0,0,1,12.6,3.76,21.67,21.67,0,0,1,7.81,10.4,25.62,25.62,0,0,1,11.56-11.76,48.48,48.48,0,0,1,19.58-3.21,20.57,20.57,0,0,1,10.29,2.89,45.33,45.33,0,0,1,9.69,7.4,42.08,42.08,0,0,1,6,11.34,35,35,0,0,1,2.49,12.17c0,2.08,0,5.49-.41,10.2s-.4,9-.4,11.86c0,9.71,1.85,15.7,5.61,17.93a24.29,24.29,0,0,0,3.12,1,15,15,0,0,1,3.44,1.24,2,2,0,0,1,1.13,1.88,9.65,9.65,0,0,1-3.64,8.21,13.9,13.9,0,0,1-9.26,3.24,17.58,17.58,0,0,1-12.69-4.4,24.8,24.8,0,0,1-6.45-13.3,34.79,34.79,0,0,1-1-9.8c0-2.34,0-6.16.41-11.56.4-4.17.63-8.68.63-13.33a20.56,20.56,0,0,0-4.16-12.78,13.52,13.52,0,0,0-11.57-5.53,19.21,19.21,0,0,0-9.16,2.61,15.19,15.19,0,0,0-6.68,6.33,46.56,46.56,0,0,0-4.17,13.13,132.12,132.12,0,0,0-2.48,24.78c0,1.93,0,5.78.4,11.24v2.89a18.37,18.37,0,0,1-.52,4.49,10,10,0,0,1-1.76,3.73,8.42,8.42,0,0,1-3.12,1.67,12,12,0,0,1-4,.84,15.56,15.56,0,0,1-7.29-2.51,10.07,10.07,0,0,1-5.21-5.61l-.2-2.89a42,42,0,0,1,.44-5,155.53,155.53,0,0,0,2.48-25.38,71.85,71.85,0,0,0-.2-7.29l-.2-9.57a16,16,0,0,0-2.34-8,30.49,30.49,0,0,0-6.45-7.37A14.6,14.6,0,0,1,1523.11,712.05Z" transform="translate(-293.51 -226.32)"/></svg>