<svg id="Layer_1" data-name="Layer 1" xmlns="http://www.w3.org/2000/svg" viewBox="0 0 298.83 270.98"><defs><style>.cls-1{isolation:isolate;}.cls-2{fill:#598392;}</style></defs><g class="cls-1"><path class="cls-2" d="M229.17,197.08c0,4.29-1.07,7.5-4.29,9.64-2.14,3.22-5.35,4.29-9.64,4.29H166c-4.28,0-7.49-1.07-9.64-4.29s-4.28-6.42-4.28-9.64V147.81h17.14V196H212V148.89L158.48,83.55a21.14,21.14,0,0,1-6.43-15V28.92c0-4.28,1.07-7.49,4.28-9.64S162.76,15,166,15h49.27c4.29,0,7.5,1.07,9.64,4.28,2.14,2.15,4.29,6.43,4.29,9.64v45H212V31.07H169.19V72.84l54.62,65.33a25.64,25.64,0,0,1,5.36,15Z" transform="translate(-150.98 -15)"/><path class="cls-2" d="M336.27,197.08c0,4.29-1.07,7.5-4.28,9.64a13.55,13.55,0,0,1-9.64,4.29H273.08c-4.28,0-7.5-1.07-9.64-4.29s-4.28-6.42-4.28-9.64V147.81h17.13V196h41.78V148.89L264.51,83.55c-4.28-4.29-5.35-9.64-5.35-15V28.92c0-4.28,1.07-7.49,4.28-9.64S269.87,15,273.08,15h49.27c4.28,0,7.5,1.07,9.64,4.28,2.14,2.15,4.28,6.43,4.28,9.64v45H319.14V31.07H276.29V72.84l54.63,65.33a25.62,25.62,0,0,1,5.35,15Z" transform="translate(-150.98 -15)"/><path class="cls-2" d="M449.81,211H431.6L395.18,106l2.15-3.21h31.06V31.07h-45V211H366.26V15H431.6c4.29,0,7.5,1.07,9.64,4.28s4.28,6.43,4.28,9.64v73.91c0,9.64-6.42,13.92-19.27,13.92H415.53C427.32,147.81,439.1,180,449.81,211Z" transform="translate(-150.98 -15)"/></g><g class="cls-1"><path class="cls-2" d="M175.61,284.91h-5.35v-1.07c-2.15,0-4.29,1.07-7.5,1.07h-6.43a5.05,5.05,0,0,1-5.35-5.35V263.49a5.05,5.05,0,0,1,5.35-5.35h13.93V245.28H157.4v7.5h-5.35v-7.5a5.05,5.05,0,0,1,5.35-5.35h13.93a5.05,5.05,0,0,1,5.35,5.35v39.63Zm-5.35-6.42v-15H157.4v16.07Z" transform="translate(-150.98 -15)"/><path class="cls-2" d="M208.82,279.56a5.06,5.06,0,0,1-5.36,5.35H190.61a5.06,5.06,0,0,1-5.36-5.35v-9.64h5.36v9.64h11.78V271l-16.07-12.85a8.17,8.17,0,0,1-2.14-4.29v-7.5a5.06,5.06,0,0,1,5.36-5.35h13.92a5.06,5.06,0,0,1,5.36,5.35v8.57h-5.36v-8.57H191.68v7.5l16.06,12.85a8.12,8.12,0,0,1,2.15,4.29v8.57Z" transform="translate(-150.98 -15)"/><path class="cls-2" d="M242,279.56a5.06,5.06,0,0,1-5.36,5.35H223.81a5.05,5.05,0,0,1-5.35-5.35v-9.64h5.35v9.64h11.78V271l-16.06-12.85a8.2,8.2,0,0,1-2.15-4.29v-7.5a5.06,5.06,0,0,1,5.36-5.35h13.92a5.06,5.06,0,0,1,5.36,5.35v8.57h-5.36v-8.57H223.81v7.5l16.07,12.85A8.17,8.17,0,0,1,242,271Z" transform="translate(-150.98 -15)"/><path class="cls-2" d="M276.29,284.91h-5.35v-1.07c-2.14,0-4.29,1.07-7.5,1.07s-5.35,1.07-7.5,1.07a5.05,5.05,0,0,1-5.35-5.35V242.07h5.35v38.56H268.8V243.14h7.49Z" transform="translate(-150.98 -15)"/><path class="cls-2" d="M309.5,254.92h-5.36v-8.57H293.43v38.56H287V241h6.43v1.07c2.14,0,4.29-1.07,6.43-1.07h6.42a5.06,5.06,0,0,1,5.36,5.35v8.57Z" transform="translate(-150.98 -15)"/><path class="cls-2" d="M341.63,284.91h-5.36v-1.07c-2.14,0-4.28,1.07-7.49,1.07s-5.36,1.07-7.5,1.07a5.06,5.06,0,0,1-5.36-5.35V263.49a5.06,5.06,0,0,1,5.36-5.35H335.2V245.28H322.35v7.5H317v-7.5a5.05,5.05,0,0,1,5.35-5.35h13.92a5.06,5.06,0,0,1,5.36,5.35Zm-6.43-6.42v-15H322.35v16.07Z" transform="translate(-150.98 -15)"/><path class="cls-2" d="M375.9,284.91h-6.42V246.35H356.63v38.56h-5.36V241h6.43v1.07c2.14,0,4.28-1.07,7.49-1.07h7.5a5.06,5.06,0,0,1,5.36,5.35v38.56Z" transform="translate(-150.98 -15)"/><path class="cls-2" d="M410.18,279.56a5.06,5.06,0,0,1-5.36,5.35H390.9a5.06,5.06,0,0,1-5.36-5.35V246.35A5.06,5.06,0,0,1,390.9,241h13.92a5.06,5.06,0,0,1,5.36,5.35v8.57h-5.36v-8.57H392v33.21h12.85v-9.64h5.36Z" transform="translate(-150.98 -15)"/><path class="cls-2" d="M443.38,279.56a5.05,5.05,0,0,1-5.35,5.35H424.1a5.05,5.05,0,0,1-5.35-5.35V246.35A5.05,5.05,0,0,1,424.1,241H438a5.05,5.05,0,0,1,5.35,5.35v16.07l-1.07,1.07H426.25v16.07H439.1v-7.5h5.35v7.5ZM438,259.21V246.35H425.17v12.86Z" transform="translate(-150.98 -15)"/></g></svg>