<svg id="Layer_1" data-name="Layer 1" xmlns="http://www.w3.org/2000/svg" viewBox="0 0 593.21 112.03"><defs><style>.cls-1{isolation:isolate;}.cls-2{fill:#598392;}</style></defs><g class="cls-1"><path class="cls-2" d="M155.52,137.49V98.73h14.65c3.31,0,5.67.48,7.56,1.89,2.37,1.42,3.31,3.79,3.31,6.62a7.64,7.64,0,0,1-2.83,6.15,14.24,14.24,0,0,1-6.62,2.83v.48c2.83.47,4.72.94,6.62,2.36a9,9,0,0,1,3.78,7.09q0,5.67-4.26,8.51a15,15,0,0,1-9.45,2.83ZM164,102v13.24h1.89a5.89,5.89,0,0,0,2.83-.48,2.45,2.45,0,0,0,1.89-.94,8.29,8.29,0,0,0,1.89-2.36,6.94,6.94,0,0,0,.48-3.31,8,8,0,0,0-1.42-4.73,5.78,5.78,0,0,0-4.26-1.42Zm0,16.55v15.59h2.83a6.07,6.07,0,0,0,4.73-1.89,7.09,7.09,0,0,0,1.89-5.2c0-2.83-.95-5.2-2.36-6.14A11.63,11.63,0,0,0,164,118.59Z" transform="translate(-3.79 -94.48)"/><path class="cls-2" d="M209.88,117.17v15.6a3.55,3.55,0,0,0,.47,2.36c.47.47.94.47,2.36.47V137c-.94.47-1.42.47-2.36.95a5.18,5.18,0,0,1-2.37.47,6.73,6.73,0,0,1-3.3-.95,12.36,12.36,0,0,1-2.37-2.83,8,8,0,0,1-2.83,2.83,7,7,0,0,1-4.26.95c-2.36,0-4.25-.47-5.67-1.89a8,8,0,0,1,0-11.35c1.42-.94,3.78-1.89,8-2.83.94,0,1.41-.48,1.89-.48.94-.47,1.41-.47,1.89-.94s.47-.47.47-1v-1.41a3.56,3.56,0,0,0-1.89-3.31c-.47-1.42-1.89-1.89-3.31-1.89a9.17,9.17,0,0,0-4.73,1.41,5.6,5.6,0,0,0-2.36,2.37h-.47l-.48-3.78a41.86,41.86,0,0,1,4.73-2.84,11.93,11.93,0,0,1,5.67-1,15.84,15.84,0,0,1,7.09,1.42C208.93,112.91,209.88,114.8,209.88,117.17Zm-7.57,11.34v-5.67a6.74,6.74,0,0,1-2.83,1,7.7,7.7,0,0,0-2.84,1.41c-.47.48-.95,1.42-1.42,1.89a6,6,0,0,0-.47,2.84,6.87,6.87,0,0,0,.94,3.31,2.62,2.62,0,0,0,2.37,1.42c1.42,0,2.83-.48,3.31-1.89A13.9,13.9,0,0,0,202.31,128.51Z" transform="translate(-3.79 -94.48)"/><path class="cls-2" d="M217,137.49V110.08h7.56v4.25a23.81,23.81,0,0,1,3.78-3.31A9.18,9.18,0,0,1,233,109.6c3.31,0,5.67,1,7.09,3.31,1.41,1.89,1.89,4.73,1.89,8.51V138h-7.57V123.79a22,22,0,0,0-.94-6.62c-.95-1.89-1.89-2.84-3.78-2.84-2.37,0-3.78,1.42-4.26,3.78-.47,1.42-.47,3.78-.47,6.62V138h-6.14A3.54,3.54,0,0,0,217,137.49Z" transform="translate(-3.79 -94.48)"/><path class="cls-2" d="M266.6,115.28v-5.2h7.56v42.07H266.6v-18a15.85,15.85,0,0,1-2.84,2.84,8,8,0,0,1-4.73,1.42,11.84,11.84,0,0,1-8.5-3.78c-2.37-2.37-2.84-6.15-2.84-9.93,0-4.73.94-8,2.36-10.4a9.3,9.3,0,0,1,8-4.25C262.34,109.6,264.71,111.5,266.6,115.28Zm-10.87,8.51v3.78a6.62,6.62,0,0,0,1.41,4.25,4.83,4.83,0,0,0,3.78,2.36c1.9,0,3.31-1.41,4.26-3.78a24.05,24.05,0,0,0,.94-6.14,28.73,28.73,0,0,0-.94-7.09c-.95-2.84-2.36-4.26-4.73-4.26-1.89,0-3.31,1.42-4.25,3.79C256.2,119.06,255.73,121,255.73,123.79Z" transform="translate(-3.79 -94.48)"/><path class="cls-2" d="M304.88,110.08v27.41h-7.56v-3.78a10.92,10.92,0,0,1-3.78,3.31,8,8,0,0,1-4.73,1.42,13.58,13.58,0,0,1-4.25-.95,6.33,6.33,0,0,1-3.31-2.83,6.78,6.78,0,0,1-.95-2.84c0-.94-.47-2.36-.47-3.78v-18h8v18.43a2.85,2.85,0,0,0,.47,1.89,10.45,10.45,0,0,0,1.42,2.37,3.62,3.62,0,0,0,2.36.94q3.54,0,4.26-2.83a17.75,17.75,0,0,0,.94-5.68V110.08h7.56Z" transform="translate(-3.79 -94.48)"/><path class="cls-2" d="M335.14,123.79H319.06a16.65,16.65,0,0,0,1.42,7.56,7,7,0,0,0,6.15,2.83,8.12,8.12,0,0,0,3.31-.47,11.63,11.63,0,0,0,3.3-1.89l.95.47-1.42,3.31a12.37,12.37,0,0,1-8,2.37c-4.73,0-8-1.42-10.4-3.79s-3.78-6.14-3.78-10.87c0-4.25.94-7.09,3.3-9.92a13.21,13.21,0,0,1,9.46-3.79c4.25,0,7.09,1.42,9,4.26Q335.14,117.4,335.14,123.79Zm-16.08-2.37h8.51a19.59,19.59,0,0,0-.47-5.67c-1-2.36-1.89-3.31-3.78-3.31s-3.31,1-3.78,3.31A19.19,19.19,0,0,0,319.06,121.42Z" transform="translate(-3.79 -94.48)"/><path class="cls-2" d="M381,94.48v43h-7.57v-4.72c-1.42,3.78-3.78,5.67-7.56,5.67s-6.62-1.42-8.51-4.26a19.17,19.17,0,0,1-2.36-9.92,17.5,17.5,0,0,1,2.83-9.93,9.56,9.56,0,0,1,8.51-4.25,14.09,14.09,0,0,1,4.73.94c1.42.48,2.36,1.89,3.31,3.31V94.48H381Zm-12.77,18.91c-2.36,0-3.78,1.41-4.72,4.25a27.49,27.49,0,0,0-.95,6.62,24.44,24.44,0,0,0,.95,6.62c.94,2.83,2.36,3.78,4.25,3.78,2.36,0,3.78-1.42,4.73-4.26a28.73,28.73,0,0,0,.94-7.09,21.08,21.08,0,0,0-.94-6.14C371.53,114.8,370.11,113.39,368.22,113.39Z" transform="translate(-3.79 -94.48)"/><path class="cls-2" d="M412.18,110.08v27.41h-7.56v-3.78a20.74,20.74,0,0,1-3.78,3.31,8,8,0,0,1-4.73,1.42,13.52,13.52,0,0,1-4.25-.95,6.3,6.3,0,0,1-3.31-2.83,6.78,6.78,0,0,1-.95-2.84c0-.94-.47-2.36-.47-3.78v-18h8v18.43a2.85,2.85,0,0,0,.47,1.89,10.1,10.1,0,0,0,1.42,2.37,3.6,3.6,0,0,0,2.36.94q3.54,0,4.25-2.83c.48-.95.48-2.84.48-5.68V110.08h8Z" transform="translate(-3.79 -94.48)"/><path class="cls-2" d="M434.4,152.15V110.08H442v5.2A9.61,9.61,0,0,1,444.8,111a8,8,0,0,1,4.72-1.42q5.69,0,8.51,4.26c1.89,2.36,2.37,5.67,2.37,9.45,0,4.73-.95,8.51-3.31,11.35a10.11,10.11,0,0,1-8,3.78,9.3,9.3,0,0,1-4.25-.95c-.95-.94-2.37-1.89-2.84-2.83v18h-6.14A1.76,1.76,0,0,0,434.4,152.15Zm12.76-17.49a4.11,4.11,0,0,0,3.78-2.84,13.85,13.85,0,0,0,1.89-7.56,26.85,26.85,0,0,0-.94-7.56c-.95-2.37-2.37-3.31-4.26-3.31-2.36,0-3.78,1.41-4.72,4.25a28.21,28.21,0,0,0-1,7.09,18.33,18.33,0,0,0,1,6.15C443.85,133.24,445.27,134.66,447.16,134.66Z" transform="translate(-3.79 -94.48)"/><path class="cls-2" d="M489.7,123.79H473.63a16.52,16.52,0,0,0,1.42,7.56,7,7,0,0,0,6.14,2.83,8.07,8.07,0,0,0,3.31-.47,11.54,11.54,0,0,0,3.31-1.89l.47.47-1.41,3.31a12.4,12.4,0,0,1-8,2.37c-4.73,0-8-1.42-10.4-3.79s-3.78-6.14-3.78-10.87c0-4.25.94-7.09,3.31-9.92a13.17,13.17,0,0,1,9.45-3.79c4.26,0,7.09,1.42,9,4.26C488.76,116.22,489.7,119.53,489.7,123.79Zm-16.54-2.37h8.51a19.19,19.19,0,0,0-.48-5.67c-.47-2.36-1.89-3.31-3.31-3.31-1.89,0-3.3,1-3.78,3.31A17.73,17.73,0,0,0,473.16,121.42Z" transform="translate(-3.79 -94.48)"/><path class="cls-2" d="M519.48,110.08v27.41h-7.56v-3.78a10.92,10.92,0,0,1-3.78,3.31,8,8,0,0,1-4.73,1.42,13.52,13.52,0,0,1-4.25-.95,6.3,6.3,0,0,1-3.31-2.83,6.64,6.64,0,0,1-1-2.84c0-.94-.47-2.36-.47-3.78v-18h8v18.43a2.81,2.81,0,0,0,.48,1.89,10.47,10.47,0,0,0,1.41,2.37,3.65,3.65,0,0,0,2.37.94q3.54,0,4.25-2.83c.47-.95.47-2.84.47-5.68V110.08h8Z" transform="translate(-3.79 -94.48)"/><path class="cls-2" d="M526.1,152.15V110.08h7.56v5.2A9.61,9.61,0,0,1,536.5,111a8,8,0,0,1,4.72-1.42q5.68,0,8.51,4.26c1.89,2.36,2.37,5.67,2.37,9.45,0,4.73-1,8.51-3.31,11.35a10.11,10.11,0,0,1-8,3.78,9.3,9.3,0,0,1-4.25-.95l-2.84-2.83v18h-6.14A1.76,1.76,0,0,0,526.1,152.15Zm12.76-17.49a4.11,4.11,0,0,0,3.78-2.84,16.49,16.49,0,0,0,1.42-7.56,26.4,26.4,0,0,0-.95-7.56c-.94-1.9-1.89-2.84-3.78-2.84-2.36,0-3.78,1.42-4.72,4.25a28.28,28.28,0,0,0-1,7.09,18.33,18.33,0,0,0,1,6.15A4.14,4.14,0,0,0,538.86,134.66Z" transform="translate(-3.79 -94.48)"/><path class="cls-2" d="M566.28,94.48v43h-7.57v-43h7.57Z" transform="translate(-3.79 -94.48)"/><path class="cls-2" d="M597,123.79H580.46a16.66,16.66,0,0,0,1.41,7.56,7,7,0,0,0,6.15,2.83,8.12,8.12,0,0,0,3.31-.47,11.81,11.81,0,0,0,3.31-1.89l.47.47-.47,3.31a12.4,12.4,0,0,1-8,2.37c-4.73,0-8-1.42-10.4-3.79s-3.78-6.14-3.78-10.87c0-4.25,1-7.09,3.31-9.92a13.17,13.17,0,0,1,9.45-3.79c4.26,0,7.09,1.42,9,4.26Q597,117.4,597,123.79Zm-16.54-2.37H589a19.59,19.59,0,0,0-.47-5.67c-.47-2.36-1.89-3.31-3.31-3.31-1.89,0-3.31,1-3.78,3.31A17.73,17.73,0,0,0,580.46,121.42Z" transform="translate(-3.79 -94.48)"/></g><g class="cls-1"><path class="cls-2" d="M155.52,166.8H174.9c5.67,0,9.92,1.89,13.23,5.67q4.26,5,4.26,12.76c0,6.15-1.89,11.35-6.15,15.13-3.78,3.78-8.51,5.2-14.65,5.2H155.52Zm8.51,3.31v32.14h4.72a13.56,13.56,0,0,0,9.93-3.78c2.83-2.84,3.78-7.56,3.78-13.71,0-5.2-1-9-3.31-11.34s-5.2-3.31-9.45-3.31Z" transform="translate(-3.79 -94.48)"/><path class="cls-2" d="M221.69,191.85H205.62a16.49,16.49,0,0,0,1.42,7.56,7,7,0,0,0,6.14,2.84,8.07,8.07,0,0,0,3.31-.47,12,12,0,0,0,3.31-1.89l.47.47-1.41,3.31a12.39,12.39,0,0,1-8,2.36c-4.73,0-8-1.42-10.4-3.78a16,16,0,0,1-3.78-10.87c0-4.26,1-7.09,3.31-9.93a13.2,13.2,0,0,1,9.45-3.78c4.26,0,7.09,1.42,9,4.26C220.75,184.29,221.69,187.6,221.69,191.85Zm-16.54-2.36h8.51a19.13,19.13,0,0,0-.48-5.67c-.47-2.37-1.89-3.31-3.3-3.31-1.9,0-3.31.94-3.79,3.31A17.63,17.63,0,0,0,205.15,189.49Z" transform="translate(-3.79 -94.48)"/><path class="cls-2" d="M226,198.47h1.41a6.07,6.07,0,0,0,2.37,3.31,5.38,5.38,0,0,0,3.78,1.42,6.83,6.83,0,0,0,2.84-.95,2.6,2.6,0,0,0,1.41-2.36c0-1.42-.94-2.37-3.31-3.78-3.78-1.9-5.67-2.84-6.14-2.84-2.36-1.42-3.31-3.78-3.31-6.62s.95-5.2,2.84-6.62a11.65,11.65,0,0,1,7.09-2.36,7,7,0,0,1,4.25,1,9.35,9.35,0,0,1,3.78,1.89l-1.42,5.2h-1.41c0-1.42-.95-2.37-1.89-3.31a5.11,5.11,0,0,0-3.31-1.42,6.64,6.64,0,0,0-2.84,1,2.6,2.6,0,0,0-1.42,2.36c0,1.42,1,2.36,3.31,3.31a65.43,65.43,0,0,1,6.62,2.83c2.36,1.42,3.31,3.78,3.31,7.09a8.59,8.59,0,0,1-2.84,6.62c-1.89,1.89-4.72,2.36-8,2.36a15.91,15.91,0,0,1-8-2.36Z" transform="translate(-3.79 -94.48)"/><path class="cls-2" d="M272.74,180.51l-2.36,5.67H269a6.5,6.5,0,0,0-6.14-6.15c-2.37,0-4.26,1.42-5.68,3.79a15.85,15.85,0,0,0-1.41,7.09c0,3.78.47,6.14,1.89,8s3.78,2.84,6.61,2.84a7.91,7.91,0,0,0,3.31-.48,9.75,9.75,0,0,0,2.84-1.89l.94,1-1.41,3.31a11.78,11.78,0,0,1-3.31,1.42,13.19,13.19,0,0,1-4.26.47c-4.72,0-8-.95-10.87-3.31s-4.25-5.67-4.25-10.4,1.41-8,4.25-10.87,6.15-3.78,10.87-3.78a17.83,17.83,0,0,1,5.2.47A25.5,25.5,0,0,1,272.74,180.51Z" transform="translate(-3.79 -94.48)"/><path class="cls-2" d="M289.29,206.5a13,13,0,0,1-13.71-13.7,15.94,15.94,0,0,1,3.78-10.87c2.36-2.84,5.67-4.26,10.4-4.26a15.61,15.61,0,0,1,10.4,3.78,13.56,13.56,0,0,1,3.78,9.93,16.88,16.88,0,0,1-3.78,10.87A15,15,0,0,1,289.29,206.5Zm.47-26a4.92,4.92,0,0,0-4.73,3.31c-.94,1.89-1.42,4.72-1.42,8.5a28.68,28.68,0,0,0,.95,7.09c.94,2.84,2.36,4.26,4.73,4.26,1.89,0,3.3-1.42,4.25-4.26a23.92,23.92,0,0,0,1.42-9,25.73,25.73,0,0,0-.95-7.09A4.53,4.53,0,0,0,289.76,180.51Z" transform="translate(-3.79 -94.48)"/><path class="cls-2" d="M333.24,178.14v27.42h-7.56V201.3a10.73,10.73,0,0,1-3.78,3.31,8,8,0,0,1-4.73,1.42,13.91,13.91,0,0,1-4.25-.94,6.4,6.4,0,0,1-3.31-2.84,6.76,6.76,0,0,1-.94-2.84c0-.94-.48-2.36-.48-3.78v-18h8v18.91a2.85,2.85,0,0,0,.47,1.89,10.36,10.36,0,0,0,1.42,2.36,3.62,3.62,0,0,0,2.36.95c2.37,0,3.78-.95,4.26-2.84.47-.94.47-2.83.47-5.67V178.62h6.62C332.3,178.62,332.77,178.14,333.24,178.14Z" transform="translate(-3.79 -94.48)"/><path class="cls-2" d="M340.81,205.56V178.14h8v7.09a10.79,10.79,0,0,1,2.84-5.2,9,9,0,0,1,6.14-2.36v8l-.47.47a1.74,1.74,0,0,0-1.42-.47h-1.41a6.84,6.84,0,0,0-3.31.94c-.95.47-1.42,1.42-1.89,2.84,0,.47-.48.94-.48,1.89V206.5H342.7A2.94,2.94,0,0,0,340.81,205.56Z" transform="translate(-3.79 -94.48)"/><path class="cls-2" d="M361.61,198.47H363a6.07,6.07,0,0,0,2.37,3.31c.94,1.42,2.36,1.42,3.78,1.42a6.74,6.74,0,0,0,2.83-.95,2.59,2.59,0,0,0,1.42-2.36c0-1.42-.94-2.37-3.31-3.78-3.78-1.9-5.67-2.84-6.14-2.84-2.36-1.42-3.31-3.78-3.31-6.62s.95-5.2,2.84-6.62a11.65,11.65,0,0,1,7.09-2.36,7,7,0,0,1,4.25,1,9.35,9.35,0,0,1,3.78,1.89l-1.42,4.72h-1.41c0-1.41-1-2.36-1.89-3.3a5.11,5.11,0,0,0-3.31-1.42,6.76,6.76,0,0,0-2.84.94,2.61,2.61,0,0,0-1.42,2.37c0,1.41.95,2.36,3.31,3.3a64.49,64.49,0,0,1,6.62,2.84c2.36,1.42,3.31,3.78,3.31,7.09a8.59,8.59,0,0,1-2.84,6.62c-1.89,1.89-4.73,2.36-8,2.36a15.91,15.91,0,0,1-8-2.36Z" transform="translate(-3.79 -94.48)"/></g><path class="cls-2" d="M95.49,100.15h-61L3.79,153.09l30.72,52.47h61l30.25-52.47Zm-6.15,95.48H40.18L15.6,153.09l24.58-42.54H89.34l24.58,42.54Z" transform="translate(-3.79 -94.48)"/></svg>