<svg id="Layer_2" data-name="Layer 2" xmlns="http://www.w3.org/2000/svg" viewBox="0 0 213.66 213.64"><defs><style>.cls-1{fill:#598392;}</style></defs><path class="cls-1" d="M109.18,2.26C50.46,2.26,2.39,50.12,2.35,108.67S48.73,215.9,109.22,215.9A106.17,106.17,0,0,0,216,109.09C216,48.59,167.33,2.43,109.18,2.26ZM63.52,40.4A14.81,14.81,0,1,1,48.63,55.23,14.91,14.91,0,0,1,63.52,40.4ZM78,167.23c-7.51.33-15,.09-22.51.11-2.15,0-4.33.41-6.45-.26-.61-.72-.4-1.58-.4-2.39q0-39.91,0-79.85c0-.8-.22-1.67.43-2.37s1.44-.29,2.16-.29q12.3,0,24.61,0c1,0,2-.3,2.7.7a8.62,8.62,0,0,1,.09,2q0,39.8,0,79.6C78.61,165.44,78.94,166.49,78,167.23Zm96.67.12c-7.64.05-15.29,0-22.93,0-.57,0-1.21.24-1.68-.32-.06-.9-.17-1.8-.17-2.69q0-19.54,0-39.07c0-.89,0-1.08,0-2.1s-.12-2.29-.18-4a19.12,19.12,0,0,0-2-8.55,12.17,12.17,0,0,0-9.9-6.89,23.41,23.41,0,0,0-5,0c-6.56.26-12.88,5.36-13.06,12.26-.05,2-.06,2.84,0,3.73s-.06,3.15-.06,4.87q0,21.18,0,42.37c-.23.58-.74.41-1.16.41H96.19c-.37,0-.75,0-1-.35,0-.75-.11-1.51-.11-2.26q0-40,0-79.95c0-.76.07-1.51.11-2.26.26-.55.76-.38,1.18-.38q10.34,0,20.66,0c.43,0,.91-.12,1.23.33l.42.44c.92,1.58.37,3.32.5,5,.1,1.24-.08,2.59.09,3.73.5,0,.66-.15,1.2-.55,6.88-7.23,15.87-8.7,25.26-8.48a43.41,43.41,0,0,1,10.08,1.32c9.87,2.58,16.29,9.22,18.54,18.94,0,0,.69,3,.9,5,0,0,.21,2.15.21,3.2s-.06,35-.05,52a24.05,24.05,0,0,0,.07,2.94C175.67,166.74,175.27,167.11,174.66,167.35Z" transform="translate(-2.35 -2.26)"/></svg>