<?xml version="1.0" encoding="utf-8"?>
<!-- Generator: Adobe Illustrator 26.0.3, SVG Export Plug-In . SVG Version: 6.00 Build 0)  -->
<svg version="1.1" xmlns="http://www.w3.org/2000/svg" xmlns:xlink="http://www.w3.org/1999/xlink" x="0px" y="0px"
	 viewBox="0 0 218.4 218.4" style="enable-background:new 0 0 218.4 218.4;" xml:space="preserve">
<style type="text/css">
	.st0{fill:#598392;}
	.st1{display:none;}
	.st2{display:inline;fill:#598392;}
</style>
<g id="Layer_1">
	<path class="st0" d="M110.9,0C50.2-0.9,0.8,48.2,0,107.7c-0.8,61,48.8,111,108.9,110.7c59.6,0.6,108.5-48,109.5-107.3
		C219.4,50.4,170.4,0.9,110.9,0z M139.8,64.1c0,2.1-0.7,2.7-2.7,2.6c-3.2-0.1-6.4-0.1-9.5,0c-5.4,0.1-7.8,2.3-8.2,7.6
		c-0.3,3.3-0.1,6.7-0.2,10.1c-0.1,1.8,0.7,2.3,2.4,2.3c5.1-0.1,10.2,0,15.3-0.1c2.1,0,2.7,0.7,2.5,2.7c-0.7,6.1-1.2,12.2-1.8,18.4
		c-0.2,1.9-1.3,2.1-2.8,2c-4,0-8.1,0.1-12.1-0.1c-2.3-0.1-3.1,0.5-3.1,3c0.1,19.4,0.1,38.8,0.1,58.3c0,4-0.1,4.1-4,4.1
		c-6.8,0-13.6-0.1-20.5,0c-2.4,0-3.2-0.9-3.2-3.2c0.1-9.9,0-19.8,0-29.7s-0.1-19.8,0-29.7c0-2.4-0.8-3.2-3.2-3
		c-2.7,0.2-5.4,0.1-8.1,0.1c-1.6,0-2.2-0.6-2.2-2.2c0.1-6.1,0.1-12.1,0-18.2c0-1.9,0.8-2.3,2.4-2.3c2.5,0.1,5,0,7.5,0
		c3.5,0.1,3.8-0.1,3.6-3.7c-0.3-5.5-0.2-10.9,0.3-16.4c1.2-12.8,10.8-21.7,23.8-22.1c6.9-0.2,13.8-0.2,20.8-0.3
		c2.1,0,2.9,0.6,2.9,2.8C139.6,52.8,139.6,58.4,139.8,64.1L139.8,64.1z"/>
</g>
<g id="Layer_2" class="st1">
	<path class="st2" d="M109.2,2.3C50.5,2.3,2.4,50.1,2.4,108.7c0,58.5,46.4,107.2,106.9,107.2c59.4,0,106.8-47.3,106.8-106.8
		C216,48.6,167.3,2.4,109.2,2.3z M63.5,40.4c8.1,0.1,14.7,6.7,14.7,14.8c0,8.1-6.8,14.9-14.9,14.8c-8-0.1-14.7-6.8-14.7-14.8
		C48.6,47.1,55.4,40.3,63.5,40.4z M78,167.2c-7.5,0.3-15,0.1-22.5,0.1c-2.1,0-4.3,0.4-6.4-0.3c-0.6-0.7-0.4-1.6-0.4-2.4
		c0-26.6,0-53.2,0-79.8c0-0.8-0.2-1.7,0.4-2.4c0.7-0.6,1.4-0.3,2.2-0.3c8.2,0,16.4,0,24.6,0c0.9,0,2-0.3,2.7,0.7
		c0.2,0.7,0.1,1.4,0.1,2c0,26.5,0,53.1,0,79.6C78.6,165.4,78.9,166.5,78,167.2z M174.7,167.3c-7.6,0.1-15.3,0-22.9,0
		c-0.6,0-1.2,0.2-1.7-0.3c-0.1-0.9-0.2-1.8-0.2-2.7c0-13,0-26,0-39.1c0-0.9,0-1.1,0-2.1s-0.1-2.3-0.2-4c-0.1-2.3-0.3-5.3-2-8.6
		c-2-3.8-5.5-6.6-9.9-6.9c-2.2-0.2-2.9-0.1-5,0c-6.6,0.3-12.9,5.4-13.1,12.3c-0.1,2-0.1,2.8,0,3.7c0,0.9-0.1,3.1-0.1,4.9
		c0,14.1,0,28.2,0,42.4c-0.2,0.6-0.7,0.4-1.2,0.4c-7.4,0-14.9,0-22.3,0c-0.4,0-0.8,0-1-0.4c0-0.8-0.1-1.5-0.1-2.3
		c0-26.7,0-53.3,0-80c0-0.8,0.1-1.5,0.1-2.3c0.3-0.5,0.8-0.4,1.2-0.4c6.9,0,13.8,0,20.7,0c0.4,0,0.9-0.1,1.2,0.3
		c0.1,0.1,0.3,0.3,0.4,0.4c0.9,1.6,0.4,3.3,0.5,5c0.1,1.2-0.1,2.6,0.1,3.7c0.5,0,0.7-0.2,1.2-0.6c6.9-7.2,15.9-8.7,25.3-8.5
		c3.4,0.1,6.8,0.5,10.1,1.3c9.9,2.6,16.3,9.2,18.5,18.9c0,0,0.7,3,0.9,5c0,0,0.2,2.2,0.2,3.2s-0.1,35,0,52c0,1-0.1,2,0.1,2.9
		C175.7,166.7,175.3,167.1,174.7,167.3z"/>
</g>
</svg>
