<svg id="Layer_1" data-name="Layer 1" xmlns="http://www.w3.org/2000/svg" viewBox="0 0 590.68 276.94"><defs><style>.cls-1{fill:#124559;}</style></defs><path class="cls-1" d="M150.06,11.2c1.41.16,2.82.37,4.24.5a135.12,135.12,0,0,1,78.42,32.75,136.08,136.08,0,0,1,45.4,76.11,134.52,134.52,0,0,1,2.73,39,136.28,136.28,0,0,1-37.58,85.19,3.59,3.59,0,0,0-1,3.14A34.73,34.73,0,0,0,273.11,279c1.17.14,2.35.09,3.52.16a4.5,4.5,0,1,1-.36,9,43.7,43.7,0,0,1-42-33.77,2.49,2.49,0,0,0-.18-.55c-.41.32-.77.58-1.1.86a136.5,136.5,0,0,1-64.64,31.11,137.88,137.88,0,0,1-37.28,1.85,133.47,133.47,0,0,1-61.51-20.49C37.68,246.78,17,218.28,8,181.41a131.53,131.53,0,0,1-3.41-23.28,3.77,3.77,0,0,0-.25-.87V142a3.85,3.85,0,0,0,.25-.88,135.59,135.59,0,0,1,4.67-28.28A138.45,138.45,0,0,1,131,11.71c1.29-.12,2.57-.35,3.86-.51ZM13.22,149.56C13.12,221,71.15,279,142.68,279.12,214,279.23,272,221.34,272.21,149.76c.23-71.28-57.72-129.33-129.38-129.62C71.59,19.91,13.34,78,13.22,149.56Z" transform="translate(-4.32 -11.2)"/><path class="cls-1" d="M70.06,86.76a39.33,39.33,0,1,1-39.25,39.4V126A39.35,39.35,0,0,1,70.06,86.76Zm10.65,11a30.22,30.22,0,0,0-39.17,38.59c3.35,9.26,13.39,18.48,20.48,18.79A81.05,81.05,0,0,1,80.71,97.72Zm-9.6,58.55A30.27,30.27,0,0,0,88.7,102.18C75.35,117.75,69.56,135.76,71.11,156.31Z" transform="translate(-4.32 -11.2)"/><path class="cls-1" d="M98,172.1a39.26,39.26,0,1,1-.38,0Zm-23.8,20.57c-6.64,7.72-8.91,20-4.23,30.86A30.16,30.16,0,0,0,98.2,241.81c10.59-.21,18.81-4.89,25.07-13.57a82.23,82.23,0,0,1-49.12-35.63Zm52.7,27.23a30.14,30.14,0,0,0-46-33.42,72.91,72.91,0,0,0,46,33.36Z" transform="translate(-4.32 -11.2)"/><path class="cls-1" d="M142.83,34.05a39.3,39.3,0,1,1-39.4,39.2v-.16A39.3,39.3,0,0,1,142.83,34.05Zm30.33,40.64c0-11.57-4.43-20.85-14.14-26.92-11-6.85-22.37-6.69-33.18.47-9.27,6.14-13.5,15.17-13.42,26.45a82.07,82.07,0,0,1,60.69-.07Zm-1.87,8.93a72.47,72.47,0,0,0-57,0,30.26,30.26,0,0,0,57,0Z" transform="translate(-4.32 -11.2)"/><path class="cls-1" d="M187.54,250.71a39.3,39.3,0,1,1,39.35-39.24v.38A39.26,39.26,0,0,1,187.54,250.71Zm23.78-58.32a82.24,82.24,0,0,1-49.21,35.78c6.53,9,15.15,13.69,26.2,13.6A30,30,0,0,0,215.61,223C220,212.14,218.34,201.93,211.32,192.39Zm-6.71-6a30.21,30.21,0,0,0-46.06,33.49A72.82,72.82,0,0,0,204.61,186.35Z" transform="translate(-4.32 -11.2)"/><path class="cls-1" d="M215.49,86.76A39.3,39.3,0,1,1,176,125.89c0-.22,0-.44,0-.67C176.26,104.11,194.25,86.55,215.49,86.76ZM197,101.89a30.45,30.45,0,0,0-9.78,35.49,29.86,29.86,0,0,0,27.11,18.89c0-.75.14-1.49.19-2.24a74.13,74.13,0,0,0-2.22-22.93,4.5,4.5,0,0,1,2.68-5.77,3.56,3.56,0,0,1,.53-.16c2.42-.59,4.7,1,5.42,3.7A82.77,82.77,0,0,1,223.45,154v1.29c11.81-3.94,19.4-11.69,21.63-23.77s-1.73-22.29-11.5-29.79c-8.71-6.66-18.48-7.71-29-4.24.34.44.57.72.78,1,2.46,3.54,5,7,7.35,10.68a4.37,4.37,0,0,1-1.21,6.06,4.11,4.11,0,0,1-1.2.56,4.63,4.63,0,0,1-5.39-2.29C202.34,109.72,199.66,105.87,197,101.89Z" transform="translate(-4.32 -11.2)"/><path class="cls-1" d="M142.83,126.43a23.21,23.21,0,1,1-.13,0ZM157,149.29a14.33,14.33,0,0,0-14.59-13.95c-8.07.36-14.38,7-14,14.71.43,8,7,14.28,14.65,13.87A14.34,14.34,0,0,0,157,149.29Z" transform="translate(-4.32 -11.2)"/><path class="cls-1" d="M329.79,148a6.31,6.31,0,0,1-3.76,1,4.51,4.51,0,0,1-3.19-1.11,3.63,3.63,0,0,1-1.28-2.31,89.39,89.39,0,0,0,.55-11.68q0-4.62-.55-14.24-.66-9.09-.66-16.11,0-3.86.38-7.77a4.1,4.1,0,0,1,1.53-2.78A7.19,7.19,0,0,1,327,91.08a209.74,209.74,0,0,1,21.56-.93h3a18.16,18.16,0,0,1,6.52,1.21,4.26,4.26,0,0,1,3.3,4.17,4.61,4.61,0,0,1-.92,3A4.31,4.31,0,0,1,357,99.69a23.29,23.29,0,0,1-2.77-.19L352,99.23a38.29,38.29,0,0,0-5.45-.57,66.31,66.31,0,0,0-16.2,1.49c0,2,0,5.34.18,9.9l.09,5.93a77.51,77.51,0,0,0,8.62-.43c2.57-.27,4-.43,4.34-.5,3.22-.37,5.34-.55,6.43-.55a6.93,6.93,0,0,1,3.75,1,3.32,3.32,0,0,1,1.52,3q0,4.64-6.43,4.63a26.2,26.2,0,0,0-2.77.09l-2,.19a51.65,51.65,0,0,1-5.28.38c-2.84,0-5.24.09-7.22.27q0,3.42.28,7.22c0,.8,0,2,.13,3.7s.14,3.18.14,4.54,0,2.25-.09,3.24a14.68,14.68,0,0,1-.46,2.87A3.85,3.85,0,0,1,329.79,148Z" transform="translate(-4.32 -11.2)"/><path class="cls-1" d="M403.46,147.91a7.57,7.57,0,0,1-4,1.39,14.63,14.63,0,0,1-5.6-.89,9.27,9.27,0,0,1-3.85-3.28,15.62,15.62,0,0,1-6.57,3.19,31,31,0,0,1-7.72,1.07,14.15,14.15,0,0,1-9.43-3.1q-3.61-3.09-3.61-9.11a8.62,8.62,0,0,1,1.28-4.77,13.53,13.53,0,0,1,3.79-3.86,21.88,21.88,0,0,1,6.11-2.72,25.6,25.6,0,0,1,7.12-1,17.7,17.7,0,0,1,4.63.74,19.43,19.43,0,0,1,4.17,1.57V125.7c0-3.34-.81-5.64-2.41-6.91s-4.19-1.89-7.78-1.89a8,8,0,0,0-3.09.65,34.21,34.21,0,0,0-3.47,1.76,10.46,10.46,0,0,1-4.9,1.39c-.57,0-1.08-.39-1.58-1.16a4,4,0,0,1-.74-2.08,5.73,5.73,0,0,1,2.57-4.63,17.71,17.71,0,0,1,6.09-2.93,24.33,24.33,0,0,1,6.29-1,23,23,0,0,1,6.43,1.06,14.95,14.95,0,0,1,10.2,8.53,16.07,16.07,0,0,1,1.53,7c0,.81-.07,2-.18,3.62s-.2,3.21-.2,4.44c0,.56-.06,1.39-.18,2.5-.13,1.36-.19,2.44-.19,3.24a2.56,2.56,0,0,0,.84,1.9,2.69,2.69,0,0,0,1.94.78l2.57-.09a1.86,1.86,0,0,1,1.57.74,3.06,3.06,0,0,1,.56,1.85A4,4,0,0,1,403.46,147.91Zm-20.95-6.67a32.55,32.55,0,0,0,6.42-3.05,23.25,23.25,0,0,0,.47-4.16,21,21,0,0,0-8.44-2.41,15.62,15.62,0,0,0-6.73,1.42,5,5,0,0,0-3,4.9,3.69,3.69,0,0,0,1.49,3,4.75,4.75,0,0,0,3,1.2A22.8,22.8,0,0,0,382.51,141.24Z" transform="translate(-4.32 -11.2)"/><path class="cls-1" d="M422.11,91.22a4.68,4.68,0,0,1,2.41,4.31,3.86,3.86,0,0,1-2,3.36,8.74,8.74,0,0,1-4.77,1.29,4.32,4.32,0,0,1-3.69-1.41,4.81,4.81,0,0,1-1-2.88,15.37,15.37,0,0,1,.59-4.63,2.57,2.57,0,0,1,2.83-1.75A12.84,12.84,0,0,1,422.11,91.22Zm1.76,39.25v2.68q0,3.61.23,6.8c.16,2.12.36,4.28.61,6.43a2.44,2.44,0,0,1-1.29,2,4.36,4.36,0,0,1-2.4.89,9.85,9.85,0,0,1-3.56-.7,3.46,3.46,0,0,1-2.19-1.71,30.22,30.22,0,0,1-.55-5.28q0-7.59-.46-17-.36-8.34-.38-11.66a3.49,3.49,0,0,1,1.68-2.87,6,6,0,0,1,3.52-1.21,4.87,4.87,0,0,1,3.74,1.21,5.66,5.66,0,0,1,1.07,3.79Z" transform="translate(-4.32 -11.2)"/><path class="cls-1" d="M435.44,116.9a3.25,3.25,0,0,1-2.86-3.33,3.14,3.14,0,0,1,.32-1.38,3.52,3.52,0,0,1,1-1.29c.8-.8,3-1.21,6.43-1.21a36.7,36.7,0,0,0,.74-7.31A19.52,19.52,0,0,0,441,100a11.06,11.06,0,0,1-.09-1.56,3.37,3.37,0,0,1,1.53-3.06,6,6,0,0,1,3.47-1,3.86,3.86,0,0,1,3.27,1.21A7.84,7.84,0,0,1,450,100a54.42,54.42,0,0,1-.83,9.45c1,0,2.34-.06,4.07-.19,2.34-.12,4-.18,5.14-.18a4.8,4.8,0,0,1,2.73.78,2.52,2.52,0,0,1,1.16,2.18,3.87,3.87,0,0,1-3.22,4.24,55.05,55.05,0,0,1-10.64,1c-.18,2.4-.29,5-.29,7.86a58.77,58.77,0,0,0,.84,10.92,8.15,8.15,0,0,0,1.9,4.31,5.46,5.46,0,0,0,4,1.28,7.34,7.34,0,0,0,3.24-.82,4,4,0,0,1,2-.66,2.19,2.19,0,0,1,1.9.84,3.73,3.73,0,0,1,.6,2.22,5,5,0,0,1-2.77,4.31,13.51,13.51,0,0,1-7.14,1.71,12.58,12.58,0,0,1-5.41-1.29,15.32,15.32,0,0,1-4.58-3.24,8.85,8.85,0,0,1-1-2.13,34.68,34.68,0,0,1-1.29-4,61.88,61.88,0,0,1-.92-12.23c0-2.27.11-5.33.37-9.15Z" transform="translate(-4.32 -11.2)"/><path class="cls-1" d="M377.54,203.21c1.29,1.15,1.91,2.11,1.91,2.92q0,5.64-.38,15.43c0,1.61-.13,3.53-.18,5.78s-.1,4.86-.1,7.82q0,14.07,1.67,20.74a3.62,3.62,0,0,1-1.76,3.2,6.61,6.61,0,0,1-3.33,1q-3.71,0-4.86-2.57a18.89,18.89,0,0,1-1.16-7.41q0-17.88.38-32.85-10.65,11.84-16.57,19.9l-1.67,1.1a4.48,4.48,0,0,1-2.58,1.39,6.31,6.31,0,0,1-4-1.21,13.13,13.13,0,0,1-3.05-3.51l-4.45-6.3q-4.62-6.42-6.76-9.8,0,8.52.84,23.13.66,8.44.65,12.68a6.11,6.11,0,0,1-1.11,3.75,4,4,0,0,1-3.51,1.53,7.49,7.49,0,0,1-3.94-.92,3.2,3.2,0,0,1-1.62-2.78c0-1.05.09-2.78.09-5.14q0-7.23-.46-17.59l-.19-5-.18-6.43q-.11-2.86-.18-6.71c-.05-2.55-.11-5.36-.11-8.38q0-5.55,6-5.55a8.54,8.54,0,0,1,3.75.92,6.15,6.15,0,0,1,2.83,2.69q.74,3.24,5.45,10.74t9.26,14.07a91.24,91.24,0,0,1,6.67-7.78,84.09,84.09,0,0,0,7.35-8.42q2.91-3.86,6.34-9.35a6.66,6.66,0,0,1,2.42-1.89,7.26,7.26,0,0,1,3.33-.79A5.33,5.33,0,0,1,377.54,203.21Z" transform="translate(-4.32 -11.2)"/><path class="cls-1" d="M431.88,259a7.78,7.78,0,0,1-4,1.39,14.63,14.63,0,0,1-5.6-.89,9.35,9.35,0,0,1-3.85-3.28,15.62,15.62,0,0,1-6.57,3.19,31.45,31.45,0,0,1-7.72,1.07,14.15,14.15,0,0,1-9.43-3.1q-3.71-3.1-3.7-9.11a8.65,8.65,0,0,1,1.39-4.77,13.4,13.4,0,0,1,3.79-3.86,22.31,22.31,0,0,1,6.1-2.73,26.11,26.11,0,0,1,7.14-1,17.76,17.76,0,0,1,4.63.74,19.35,19.35,0,0,1,4.16,1.57v-1.48c0-3.32-.8-5.62-2.42-6.9s-4.18-1.91-7.71-1.89a8.09,8.09,0,0,0-3.11.64,34.21,34.21,0,0,0-3.47,1.76,10.31,10.31,0,0,1-4.9,1.39c-.55,0-1.07-.38-1.58-1.16a4,4,0,0,1-.73-2.08,5.68,5.68,0,0,1,2.57-4.63,17.56,17.56,0,0,1,6.05-2.91,24,24,0,0,1,6.3-1,23,23,0,0,1,6.43,1.06,17.45,17.45,0,0,1,5.93,2.91,17.08,17.08,0,0,1,4.29,5.61,15.76,15.76,0,0,1,1.53,7,30.19,30.19,0,0,1-.18,3.61,40.27,40.27,0,0,0-.19,4.45c0,.83-.08,1.67-.18,2.49-.13,1.37-.18,2.45-.18,3.24a2.56,2.56,0,0,0,.82,1.91,2.77,2.77,0,0,0,2,.78L432,253a1.88,1.88,0,0,1,1.58.73,3.14,3.14,0,0,1,.55,1.85A4.07,4.07,0,0,1,431.88,259Zm-21-6.67a32.55,32.55,0,0,0,6.42-3,23.25,23.25,0,0,0,.47-4.16,20.94,20.94,0,0,0-8.42-2.41,15.8,15.8,0,0,0-6.77,1.39,4.94,4.94,0,0,0-2.95,4.9,3.68,3.68,0,0,0,1.55,2.93,4.85,4.85,0,0,0,3,1.19,22.35,22.35,0,0,0,6.65-.83Z" transform="translate(-4.32 -11.2)"/><path class="cls-1" d="M450.52,202.29a4.68,4.68,0,0,1,2.42,4.31,3.84,3.84,0,0,1-2,3.36,8.74,8.74,0,0,1-4.77,1.29,4.32,4.32,0,0,1-3.7-1.39,4.77,4.77,0,0,1-1-2.88,15.11,15.11,0,0,1,.6-4.63,2.51,2.51,0,0,1,2.82-1.75A12.86,12.86,0,0,1,450.52,202.29Zm1.76,39.28v2.69q0,3.62.24,6.8c.15,2.12.36,4.28.6,6.43a2.45,2.45,0,0,1-1.29,2,4.36,4.36,0,0,1-2.4.89,9.85,9.85,0,0,1-3.56-.7A3.42,3.42,0,0,1,443.7,258a29.31,29.31,0,0,1-.57-5.28q0-7.59-.46-17-.36-8.34-.36-11.66a3.47,3.47,0,0,1,1.66-2.87,6,6,0,0,1,3.52-1.21,4.84,4.84,0,0,1,3.74,1.21,5.64,5.64,0,0,1,1.07,3.79Z" transform="translate(-4.32 -11.2)"/><path class="cls-1" d="M492.69,240.88a6.7,6.7,0,0,1,2.92,2.92,11.78,11.78,0,0,1,.73,4.63,9.42,9.42,0,0,1-1.94,5.87,12.94,12.94,0,0,1-5,3.94,22.64,22.64,0,0,1-5.42,1.58,32.66,32.66,0,0,1-5,.55,28.22,28.22,0,0,1-4.77-.55,24.31,24.31,0,0,1-4-1,19.4,19.4,0,0,1-5-4.06,7.48,7.48,0,0,1-2.07-4.92,3.65,3.65,0,0,1,1.2-2.91,4.58,4.58,0,0,1,3.15-1.07,3.52,3.52,0,0,1,1.94.69A4.17,4.17,0,0,1,470.8,248a7,7,0,0,0,3.43,3.62,10.93,10.93,0,0,0,4.9,1.19,16.65,16.65,0,0,0,6-1.05c1.85-.72,2.78-1.69,2.78-2.92a2.18,2.18,0,0,0-.41-1.35,6.41,6.41,0,0,0-1.16-1,11,11,0,0,0-3.86-1.53l-3.33-.79a35.28,35.28,0,0,1-7.4-2.51,17.88,17.88,0,0,1-5.73-4.16,9,9,0,0,1-2.14-6.2,9.42,9.42,0,0,1,1.85-5.23,10.9,10.9,0,0,1,4.17-3.86,37.22,37.22,0,0,1,5.6-1.38,35.59,35.59,0,0,1,5.33-.74,28.64,28.64,0,0,1,4.62.41,9.33,9.33,0,0,1,3.8,1.29,19.78,19.78,0,0,1,4.07,3.11,5.14,5.14,0,0,1,1.57,3.65,5.94,5.94,0,0,1-.46,2.17,2.47,2.47,0,0,1-1.11,1.44,7.7,7.7,0,0,1-3.24.65,2,2,0,0,1-1.35-.47,13.75,13.75,0,0,1-1.28-1.47,4.09,4.09,0,0,0-1.95-1.86c-.74-.18-1.82-.41-3.23-.69a18.72,18.72,0,0,0-2.87-.41A9.44,9.44,0,0,0,475,229c-1.51.81-2.27,1.74-2.27,2.78a1.49,1.49,0,0,0,.69,1.29,11.92,11.92,0,0,0,1.48.83c.53.25.89.4,1.07.47a25.09,25.09,0,0,0,4.3,1.56c1.57.44,2.57.71,2.92.84a23.41,23.41,0,0,1,6.66,2.31A17.75,17.75,0,0,0,492.69,240.88Z" transform="translate(-4.32 -11.2)"/><path class="cls-1" d="M542.71,234a24.07,24.07,0,0,1,.46,4.4,31.62,31.62,0,0,1-.82,6.42A36.09,36.09,0,0,1,541,250q-5,10.38-19.28,10.38a15.49,15.49,0,0,1-8.89-3,17.34,17.34,0,0,1-6.15-7.08l-.65-1.85c-.06-.25-.38-1.19-1-2.83a12.44,12.44,0,0,1-.88-3.74,26,26,0,0,1,1.85-8.8,28,28,0,0,1,4.26-7.95,12.33,12.33,0,0,1,6-3.67,24.93,24.93,0,0,1,7.87-1.53,19.65,19.65,0,0,1,10.29,2.42,21.37,21.37,0,0,1,7.08,8A12.61,12.61,0,0,1,542.71,234Zm-9.08,8.84a24.75,24.75,0,0,0,.27-3.85,15.14,15.14,0,0,0-1-5.29,12.48,12.48,0,0,0-2.83-4.43,2.32,2.32,0,0,0-.64-.61,6.91,6.91,0,0,0-1.76-.83,10.36,10.36,0,0,0-9.17,1.71,13.17,13.17,0,0,0-3.74,5.28,16.74,16.74,0,0,0-1.29,6.2,22.19,22.19,0,0,0,.57,3.42,29.58,29.58,0,0,0,.82,3.34,12.12,12.12,0,0,0,2.88,3,7.55,7.55,0,0,0,4.81,1.71,10.11,10.11,0,0,0,6.53-1.94,14,14,0,0,0,3.86-5.38A7.62,7.62,0,0,0,533.63,242.87Z" transform="translate(-4.32 -11.2)"/><path class="cls-1" d="M550.11,226.26a3.75,3.75,0,0,1-.46-2.18,3.27,3.27,0,0,1,1.29-2.73,4.59,4.59,0,0,1,2.9-1,9.44,9.44,0,0,1,5.61,1.67,9.65,9.65,0,0,1,3.47,4.63,11.35,11.35,0,0,1,5.14-5.24,21.52,21.52,0,0,1,8.7-1.42,9.14,9.14,0,0,1,4.58,1.28,20.28,20.28,0,0,1,4.3,3.29,18.83,18.83,0,0,1,2.69,5,15.74,15.74,0,0,1,1.11,5.41c0,.93,0,2.45-.18,4.54s-.18,4-.18,5.27c0,4.32.82,7,2.49,8a11.36,11.36,0,0,0,1.39.47,6.51,6.51,0,0,1,1.53.55.88.88,0,0,1,.5.83,4.29,4.29,0,0,1-1.62,3.66,6.16,6.16,0,0,1-4.11,1.43,7.84,7.84,0,0,1-5.65-1.95,11,11,0,0,1-2.86-5.91,15.64,15.64,0,0,1-.47-4.36c0-1,0-2.74.18-5.14.18-1.85.29-3.86.29-5.93a9.21,9.21,0,0,0-1.85-5.68,6,6,0,0,0-5.15-2.46,8.59,8.59,0,0,0-4.07,1.16,6.74,6.74,0,0,0-3,2.82,20.65,20.65,0,0,0-1.85,5.83,58.26,58.26,0,0,0-1.11,11c0,.86,0,2.57.18,5v1.29a7.85,7.85,0,0,1-.23,2,4.52,4.52,0,0,1-.78,1.66,3.74,3.74,0,0,1-1.39.74,5.32,5.32,0,0,1-1.76.37,6.94,6.94,0,0,1-3.24-1.11,4.48,4.48,0,0,1-2.32-2.5l-.09-1.28a18.47,18.47,0,0,1,.2-2.23,68.85,68.85,0,0,0,1.1-11.28,31.4,31.4,0,0,0-.09-3.24l-.09-4.26a7,7,0,0,0-1-3.57,13.42,13.42,0,0,0-2.87-3.28A6.92,6.92,0,0,1,550.11,226.26Z" transform="translate(-4.32 -11.2)"/></svg>