<svg id="Layer_1" data-name="Layer 1" xmlns="http://www.w3.org/2000/svg" viewBox="0 0 248.46 286.98"><defs><style>.cls-1{fill:#598392;}</style></defs><path class="cls-1" d="M300.39,7,176.16,78.26V294H424.62V78.26ZM225.28,107.16h23.11a1.93,1.93,0,1,1,0,3.85,3.39,3.39,0,0,0-1.93,1v41.41a3.39,3.39,0,0,0,1.93,1,1.93,1.93,0,1,1,0,3.86H225.28c-1,0-1,0-1-1v-1a3.39,3.39,0,0,1,1.93-1c1,0,1-1,1-2.89V135.08h-5.78v-3.85h6.75V112a3.39,3.39,0,0,0-1.93-1c-1.93,0-1.93-1-1.93-1.93S224.31,108.12,225.28,107.16Zm-23.12,52h-2.89a1.93,1.93,0,0,1,0-3.85,3.34,3.34,0,0,0,1.93-1V112.93a3.35,3.35,0,0,0-1.93-1,1.93,1.93,0,0,1,0-3.85h23.12a3.35,3.35,0,0,1,1,1.92v1a3.35,3.35,0,0,1-1.93,1c-1,0-1,1-1,2.89v38.52a3.35,3.35,0,0,0,1.93,1c1,0,1,1,1,1.93s0,1-1,1.93-1.93,0-2.89,0H202.16Zm25,90.52a1,1,0,0,0-1,1H205.05a2.07,2.07,0,0,1-1.92-1.93l1.92-1.92a3.34,3.34,0,0,0,1.93-1V204.42a3.35,3.35,0,0,0-1.93-1,1.93,1.93,0,0,1,0-3.85h19.26v46.22a3.38,3.38,0,0,0,1.93,1,2.07,2.07,0,0,1,1.93,1.92C228.17,249.68,228.17,249.68,227.2,249.68Zm26-3.85c0,1-1,1-1,1.93s-1,1-1.92,1.92l-1.93,1.93a14,14,0,0,1-6.74,1.93,9.95,9.95,0,0,1-10.6-10.6V236.2c0-1.92,0-3.85-1-4.81a2.55,2.55,0,0,0-2.89-2.89v-3.85c1.93,0,2.89-1,2.89-1.93,1-1,1-1.93,1-3.85v-9.63c0-1.93,0-2.89-1-3.86s-1.92-1-2.89-1.92v-3.85h9.63a3,3,0,0,1,1.93,1c5.78,1.93,7.7,5.78,7.7,11.56a12.22,12.22,0,0,1-1,5.77c-1,1.93,0,3.86-1.93,4.82l-1,1a3.34,3.34,0,0,1-1.92,1c-1,0-1,1-1.93,1s-1.93,1-2.89,1c1.93,0,3.85,1,4.82,1s1.92,1,2.88,1l2.89,2.89c1,1,1,2.89,1,3.85v7.7c0,1,0,1,1,1a.94.94,0,0,0,1-1c1-1,1-1,1.93-1a.94.94,0,0,1,1,1l1,1Zm1-113.64a34.71,34.71,0,0,1,1.92-10.59,39.2,39.2,0,0,1,4.82-8.67,42,42,0,0,1,6.74-5.77,27.94,27.94,0,0,1,8.67-1.93V110h-1c-1,0-1.92,1-2.88,1.93,0,1-1,1.93-1,3.85v33.71c0,1.92,0,3.85,1,4.81s1,1.93,2.88,1.93v3.85a15.51,15.51,0,0,1-8.66-2.89c-2.89-1-4.82-2.89-6.74-5.78-1.93-1.92-2.89-4.81-3.86-8.66S254.17,136.05,254.17,132.19Zm27,72.23v-4.81h15.41v13.48c0,1.93-1,1.93-1.92,1.93h-1l-1-1C290.76,208.27,286.91,205.38,281.13,204.42ZM289.8,216V236.2a3.35,3.35,0,0,1-1.93,1c-1,0-1,0-1-1a3.35,3.35,0,0,1-1-1.92c-1-3.86-2.89-5.78-4.82-5.78v-5.78c1-1,2.89-1,2.89-1.93,1-1,1-1.92,1.93-2.89a3.35,3.35,0,0,1,1-1.92l1-1C288.84,215,288.84,215,289.8,216Zm0-27.93-11.56,7.7-1,1h-2.89c-1,0-1,0-1-1l5.78-8.66a.94.94,0,0,1,1-1h9.63c1,0,1,0,1,1Zm-10.59,63.56H259a1.93,1.93,0,0,1,0-3.85,3.35,3.35,0,0,0,1.93-1V205.38a3.35,3.35,0,0,0-1.93-1,1.93,1.93,0,0,1,0-3.85h20.23Zm18.29-13.48v13.48H282.1V246.8h-1c2.89,0,4.82-1,7.71-2.89,1.92-1.93,3.85-3.86,4.81-6.75,0-1,1-1,1-1.92s1,0,1,0c1,0,1,0,1.92,1Zm1-94.38c-1,2.89-2.89,5.78-3.85,8.67a42.63,42.63,0,0,1-6.75,5.78l-8.66,2.89v-3.86c1,0,1.92-1,2.89-1.92s1-1.93,1-4.82v-33.7c0-1.93,0-2.89-1-3.86a7.51,7.51,0,0,0-2.89-1.92v-4.74c-.32,0-.65-.08-1-.08h1v.08a31.84,31.84,0,0,1,7.7,1.85c2.89,1,4.82,2.89,6.74,5.78a69.94,69.94,0,0,1,4.82,8.66,34.78,34.78,0,0,1,1.92,10.6A34.71,34.71,0,0,1,298.47,143.75ZM388,107.16h15.41v13.48c0,1.92-1,1.92-1.93,1.92h-1l-1-1c-1.93-5.78-5.78-8.67-11.56-9.63Zm0,23.11c1-1,2.89-1,2.89-1.93,1-1,1-1.92,1.92-2.89a3.34,3.34,0,0,1,1-1.92l1-1c1,0,1,0,1.93,1v20.22a3.39,3.39,0,0,1-1.93,1c-1,0-1,0-1-1a3.34,3.34,0,0,1-1-1.93c-1-3.85-2.88-5.77-4.81-5.77ZM365.88,112a1.93,1.93,0,1,1,0-3.85H386.1v51H365.88a1.93,1.93,0,1,1,0-3.85,3.38,3.38,0,0,0,1.93-1V112.93A3.39,3.39,0,0,0,365.88,112ZM336,151.45V107.16h21.18a1.93,1.93,0,1,1,0,3.85,3.35,3.35,0,0,0-1.92,1v41.41a3.35,3.35,0,0,0,1.92,1,1.93,1.93,0,0,1,0,3.86H334.1c-1,0-1,0-1-1l-1-1a2.08,2.08,0,0,1,1.93-1.93,3.39,3.39,0,0,0,1.93-1Zm-29.86-44.29h17.34l7.7,21.18,2.89-11.55v12.52l-8.67,28.89h-1.92l-14.45-43.34a3.55,3.55,0,0,1-1-2.89c0-1-1-1-1.93-1-1.92,0-2.89-1-2.89-1.93S304.25,107.16,306.17,107.16Zm-3.85,50.07a.94.94,0,0,0,1-1c2.89-1.93,3.85-3.85,3.85-7.7V125.45l5.78,10.6v14.44c0,1,0,1,1,1.93v1l1,1,1,1,1,1c1,1,1,1,1,1.93s-1,1.92-2.89,1.92h-9.63c-1.93,0-2.89-1-2.89-1.92Zm12.52,95.34h-8.67c-1.92,0-3.85-1-3.85-1.92v-1a3.35,3.35,0,0,1,1.93-1c2.88-1,3.85-3.85,3.85-7.7v-27l3.85,5.78v23.11c0,1,0,1,1,1.93,0,1,1,1,1.93,1.93l1.92,1.92c1,0,1,1,1,1.93S316.76,252.57,314.84,252.57Zm28.89-1.92H333.14l-26-44.3a.94.94,0,0,0-1-1l-1-1a.94.94,0,0,1-1-1,3,3,0,0,1-1.93-1,.94.94,0,0,1-1-1v-1c0-1,0-1.93,1-1.93h20.22l21.19,35.64Zm6.74-48.15a3.35,3.35,0,0,1-1.93,1c-2.88,1-3.85,3.85-3.85,7.7V228.5l-4.81-6.74v-10.6c0-1.92,0-3.85-1-4.81L336,203.46c-1-1-1-1-1-1.93s1-1.92,2.89-1.92h9.63c1.93,0,2.89,1,2.89,1.92Zm25,0h-1c-1,0-1.93,1-2.89,1.92s-1,1.93-1,3.85V242c0,1.93,0,3.85,1,4.82,0,1,1,1.92,2.89,1.92v3.85a15.51,15.51,0,0,1-8.67-2.89c-2.89-1-4.82-2.88-6.74-5.77-1.93-1.93-2.89-4.82-3.85-8.67s-1.93-6.74-1.93-10.59a34.41,34.41,0,0,1,1.93-10.6c1-2.89,2.89-5.78,4.81-8.67a42,42,0,0,1,6.74-5.77,27.94,27.94,0,0,1,8.67-1.93Zm22.15,33.7c-1,2.89-2.89,5.78-3.85,8.67a42,42,0,0,1-6.74,5.78l-8.67,2.89v-5.78c1,0,1.93-1,2.89-1.93s1-1.92,1-4.81V207.31c0-1.93,0-2.89-1-3.85a7.46,7.46,0,0,0-2.89-1.93v-2.81c-.32,0-.64-.08-1-.08h1v.08a31.62,31.62,0,0,1,7.7,1.85c2.89,1,4.82,2.89,6.74,5.78a69.4,69.4,0,0,1,4.82,8.67,30,30,0,0,1,0,21.18Zm6.74-90.52v13.48H388v-4.82c2.89,0,4.81-1,7.7-2.89,1.93-1.92,3.86-3.85,4.82-6.74,0-1,1-1,1-1.92s1,0,1,0c1,0,1,0,1.93,1Z" transform="translate(-176.16 -7)"/></svg>