<svg id="Layer_1" data-name="Layer 1" xmlns="http://www.w3.org/2000/svg" viewBox="0 0 1920 190.78"><defs><style>.cls-1{fill:#124559;}</style></defs><path class="cls-1" d="M-.48,246.58h1920V94.21s-13-7.18-22-10.18-35.26,0-35.26,0-15.85-5.67-20.29-1.33S1820.52,97,1807.52,97s-43.5-4.27-43.5-4.27l-30.75-11.69s-48.75-19-60.75-16-41,11-48,13-48,11-68,16-78,19-102,19-15-16-80-15-119,20-177,8-128-47-147-50-150,25-164,25-136,27-136,27-134.8,2.23-149-3c-38-14-168-40-190-40s-98,4-189.84,37.62c-20.82,7.61-47.16,2.38-69.16,6.38s-92,11.22-109,15.61-44-2.9-44-2.9Z" transform="translate(0.48 -55.81)"/></svg>