<svg id="Layer_1" data-name="Layer 1" xmlns="http://www.w3.org/2000/svg" viewBox="0 0 1920 251.19"><defs><style>.cls-1{fill:#598392;}</style></defs><path class="cls-1" d="M-.48,275.4h1920V118.82a58.92,58.92,0,0,1-20-8.61c-9.77-6.68-13-7-30-13s-47-20-64-26-42-15-68-9-42,13-52,18-58.38,37.36-68.19,36.68-51.81,6.32-64.81,6.32-66-18-73-23-39-31-39-31l-23.19-9-40.81-18-35-18h-48.83l-23.17,11s-45,28-55,31-27,19-52,22-21,3-36,3h-72c-14,0-25-2-34-3s-21-8-21-8-42-8-52-2-10,5-21,12-39.83,25.36-59.92,26.68-31.75,2.51-59.42,3.92-69.56,0-69.56,0-36.1-20.6-42.1-20.6-50,2-65,8-27,4.19-33.48,12.6-16.52,11.4-47.52,16.4-67,10-81,6-34-11.33-47.5-15.66-86.49,3-95-10.66-24.5-24.37-43.5-27-69-16.65-77-14.65-80,1-90,5,3-2-10,4-39,3-52,7-33,16-33,16l-21,.05Z" transform="translate(0.48 -24.21)"/></svg>